<?xml version="1.0" encoding="iso-8859-1"?>
<!-- Generator: Adobe Illustrator 19.0.0, SVG Export Plug-In . SVG Version: 6.00 Build 0)  -->
<svg version="1.1" id="Capa_1" xmlns="http://www.w3.org/2000/svg" xmlns:xlink="http://www.w3.org/1999/xlink" x="0px" y="0px"
	 viewBox="0 0 512 512" style="enable-background:new 0 0 512 512;" xml:space="preserve">
<g>
	<g>
		<path d="M379.34,135.416l39.317-44.65l-21.396-37.164H301.24l-21.396,37.164l39.273,44.6
			c-23.292,4.337-44.843,13.625-63.516,26.737l-1.626-1.68c-25.999-17.564-57.34-27.82-91.078-27.82
			C72.932,132.602,0,205.534,0,295.5s72.932,162.898,162.898,162.898c34.616,0,66.704-10.806,93.093-29.217
			c26.391,18.416,58.49,29.217,93.111,29.217C439.068,458.398,512,385.466,512,295.5C512,215.867,454.856,149.593,379.34,135.416z
			 M211.119,382.122c-14.283,7.983-30.728,12.542-48.221,12.542c-54.679,0-99.163-44.484-99.163-99.163
			c0-54.679,44.484-99.163,99.163-99.163c17.496,0,33.949,4.555,48.234,12.541c-15.787,25.092-24.928,54.788-24.928,86.622
			C186.204,327.331,195.334,357.031,211.119,382.122z M256,329.651c-3.92-10.652-6.061-22.157-6.061-34.151
			c0-11.995,2.142-23.499,6.062-34.151l0.001,0.001c3.919,10.652,6.06,22.156,6.06,34.151C262.061,307.495,259.919,319,256,329.651z
			 M349.102,394.664c-17.496,0-33.949-4.555-48.234-12.541c15.787-25.092,24.928-54.788,24.928-86.622
			c0-31.832-9.13-61.531-24.914-86.621c14.283-7.983,30.728-12.542,48.221-12.542c54.679,0,99.163,44.484,99.163,99.163
			C448.266,350.179,403.781,394.664,349.102,394.664z"/>
	</g>
</g>
<g>
</g>
<g>
</g>
<g>
</g>
<g>
</g>
<g>
</g>
<g>
</g>
<g>
</g>
<g>
</g>
<g>
</g>
<g>
</g>
<g>
</g>
<g>
</g>
<g>
</g>
<g>
</g>
<g>
</g>
</svg>
